<?xml version="1.0" encoding="utf-8"?>
<!-- Generator: Adobe Illustrator 15.1.0, SVG Export Plug-In . SVG Version: 6.00 Build 0)  -->
<!DOCTYPE svg PUBLIC "-//W3C//DTD SVG 1.1//EN" "http://www.w3.org/Graphics/SVG/1.1/DTD/svg11.dtd">
<svg version="1.1" id="Layer_1" xmlns="http://www.w3.org/2000/svg" xmlns:xlink="http://www.w3.org/1999/xlink" x="0px" y="0px"
	 width="287.939px" height="288.507px" viewBox="0 0 287.939 288.507" enable-background="new 0 0 287.939 288.507"
	 xml:space="preserve">
<path fill="none" stroke="#035589" stroke-width="2" stroke-linecap="square" stroke-miterlimit="10" d="M274.842,153.739
	l-1.278,0.007v-72.8v0v-48h-19v48v0v72.911l-1.282,0.008C244.625,70,150.538,34.518,134.485,2.382c-0.921-1.843-3.712-1.843-4.633,0
	c-16.627,33.284-116.977,70.151-119.4,160.656c-0.155,5.78,0.108,11.475,0.743,17.063c-1.188-0.823-2.654-1.258-4.203-1.135
	c-3.579,0.281-6.252,3.41-5.972,6.989c1.921,24.447,10.277,42.601,24.834,53.957c5.607,4.374,11.556,7.254,17.281,9.147
	c22.115,23.604,53.658,38.447,89.034,38.447c26.914,0,51.61-8.591,71.624-23.093c3.82-1.808,7.139-4.502,9.695-7.815
	c2.493-2.229,4.89-4.562,7.189-6.986h31.386c11.855,0,21.5-9.646,21.5-21.5v-50.366l1.474-0.009
	c6.6-0.054,11.956-5.497,11.902-12.097S281.441,153.685,274.842,153.739z M254.563,228.112c0,1.354-1.145,2.5-2.5,2.5H235.43
	c9.803-15.599,16.126-33.55,17.948-52.748l1.186-0.007V228.112z"/>
<g>
	<g>
		<path fill="#2D95D2" d="M134.485,2.382c-0.921-1.843-3.712-1.843-4.633,0c-16.627,33.284-116.977,70.151-119.4,160.656
			c-1.819,67.91,52.653,124.469,121.717,124.469c69.063,0,123.535-56.559,121.716-124.469
			C251.462,72.533,151.112,35.666,134.485,2.382"/>
		<path fill="#D0EDFC" d="M78.693,264.559L78.693,264.559c-6.521,1.011-12.686-3.498-13.696-10.021l-3.165-20.422
			c-1.011-6.521,3.499-12.686,10.02-13.697c6.523-1.01,12.686,3.499,13.696,10.021l3.166,20.423
			C89.725,257.385,85.215,263.547,78.693,264.559"/>
		<path fill="#D0EDFC" d="M64.621,252.444c-9.48,0-25.143-1.904-38.767-12.532c-14.557-11.356-22.913-29.51-24.834-53.957
			c-0.28-3.579,2.393-6.708,5.972-6.989c3.57-0.283,6.708,2.392,6.989,5.971c1.619,20.595,8.268,35.615,19.764,44.643
			c16.191,12.715,37.15,9.486,37.36,9.454c3.531-0.578,6.879,1.815,7.465,5.351c0.585,3.534-1.787,6.873-5.319,7.471
			C72.88,251.918,69.604,252.444,64.621,252.444"/>
		<rect x="254.563" y="32.946" fill="#2D95D2" width="19" height="48"/>
		<path fill="#FBAE2B" d="M254.563,80.946v147.167c0,1.354-1.145,2.5-2.5,2.5H215.5v19h36.563c11.855,0,21.5-9.646,21.5-21.5V80.946
			H254.563z"/>
		<path fill="#D0EDFC" d="M234.273,166.003L234.273,166.003c-0.053-6.6,5.303-12.043,11.902-12.097l28.666-0.168
			c6.6-0.054,12.044,5.302,12.098,11.902s-5.303,12.043-11.902,12.097l-28.666,0.168
			C239.771,177.959,234.327,172.604,234.273,166.003"/>
		<path fill="#075589" d="M199.499,101.131H62.077c-24.942,0-45.234,20.292-45.234,45.233v19.71
			c0,24.941,20.292,45.233,45.234,45.233h137.422c24.941,0,45.233-20.292,45.233-45.233v-19.71
			C244.732,121.423,224.44,101.131,199.499,101.131 M229.732,166.074c0,16.67-13.563,30.233-30.233,30.233H62.077
			c-16.671,0-30.234-13.562-30.234-30.233v-19.71c0-16.67,13.563-30.233,30.234-30.233h137.422c16.67,0,30.233,13.563,30.233,30.233
			V166.074z"/>
		<path fill="#D0EDFC" d="M192.501,266.946c-14.612,0-26.5-11.889-26.5-26.5c0-14.612,11.888-26.5,26.5-26.5s26.5,11.888,26.5,26.5
			C219.001,255.058,207.113,266.946,192.501,266.946 M192.501,222.946c-9.649,0-17.5,7.851-17.5,17.5c0,9.648,7.851,17.5,17.5,17.5
			s17.5-7.852,17.5-17.5C210.001,230.797,202.15,222.946,192.501,222.946"/>
		<path fill="#D0EDFC" d="M229.732,166.074v-19.71c0-16.67-13.563-30.233-30.233-30.233H62.077
			c-16.671,0-30.234,13.563-30.234,30.233v19.71c0,2.542,0.32,5.011,0.913,7.372h196.063
			C229.413,171.085,229.732,168.616,229.732,166.074"/>
		<path fill="#FBAE2B" d="M206.001,162.446c0,16.568-13.432,30-30,30s-30-13.432-30-30c0-16.568,13.432-30,30-30
			S206.001,145.878,206.001,162.446"/>
		<path fill="#2D95D2" d="M32.757,173.446c3.3,13.118,15.192,22.861,29.32,22.861h137.422c14.128,0,26.021-9.743,29.32-22.861
			H32.757z"/>
		<path fill="#075589" d="M98.027,143.501c-2.757,0-5.359,0.647-7.678,1.784l14.188-14.188c-6.119-2.104-13.173-0.715-18.057,4.168
			c-1.949,1.95-3.332,4.248-4.168,6.692c-0.835-2.444-11.556-13.742-21.562-11.671c-1.679,1.422,13.526,14.999,13.526,14.999
			c-2.318-1.137-4.921-1.784-7.679-1.784c-6.906,0-12.876,4.006-15.715,9.82h30.027c-0.732,10.237-5.06,19.878-12.438,27.527
			c-8.38,8.687-19.575,13.676-31.529,14.057c0.107,1.037,0.239,2.066,0.397,3.088c12.655-0.48,24.493-5.789,33.368-14.99
			c7.942-8.234,12.578-18.637,13.313-29.682h29.723C110.904,147.507,104.934,143.501,98.027,143.501"/>
		<path fill="#D0EDFC" d="M172.788,233.779c0,23.195-18.804,42-42,42c-23.196,0-42-18.805-42-42s18.804-42,42-42
			C153.984,191.779,172.788,210.584,172.788,233.779"/>
		<path fill="#075589" d="M130.788,283.279c-27.294,0-49.5-22.207-49.5-49.5c0-27.294,22.206-49.5,49.5-49.5s49.5,22.206,49.5,49.5
			C180.288,261.072,158.082,283.279,130.788,283.279 M130.788,199.279c-19.023,0-34.5,15.477-34.5,34.5s15.477,34.5,34.5,34.5
			c19.023,0,34.5-15.477,34.5-34.5S149.812,199.279,130.788,199.279"/>
		<path fill="#075589" d="M131.447,212.011c-0.141-0.281-0.565-0.281-0.706,0c-2.534,5.07-17.826,10.689-18.195,24.481
			c-0.278,10.35,8.023,18.968,18.548,18.968s18.826-8.618,18.548-18.968C149.273,222.7,133.981,217.081,131.447,212.011"/>
		<path fill="#FBAE2B" d="M150.073,179.343c1.18,2.417,3.662,4.083,6.533,4.083s5.354-1.666,6.533-4.083H150.073z"/>
		<path fill="#FBAE2B" d="M163.079,179.343c1.18,2.417,3.662,4.083,6.533,4.083s5.353-1.666,6.533-4.083H163.079z"/>
		<path fill="#FBAE2B" d="M176.084,179.343c1.181,2.417,3.662,4.083,6.533,4.083s5.354-1.666,6.533-4.083H176.084z"/>
		<path fill="#FBAE2B" d="M189.09,179.343c1.18,2.417,3.662,4.083,6.533,4.083s5.353-1.666,6.533-4.083H189.09z"/>
		<path fill="#FBAE2B" d="M163.079,188.343c1.18,2.417,3.662,4.083,6.533,4.083s5.353-1.666,6.533-4.083H163.079z"/>
		<path fill="#FBAE2B" d="M176.084,188.343c1.181,2.417,3.662,4.083,6.533,4.083s5.354-1.666,6.533-4.083H176.084z"/>
	</g>
</g>
</svg>
