<?xml version="1.0" encoding="utf-8"?>
<!-- Generator: Adobe Illustrator 15.1.0, SVG Export Plug-In . SVG Version: 6.00 Build 0)  -->
<!DOCTYPE svg PUBLIC "-//W3C//DTD SVG 1.1//EN" "http://www.w3.org/Graphics/SVG/1.1/DTD/svg11.dtd">
<svg version="1.1" id="Layer_1" xmlns="http://www.w3.org/2000/svg" xmlns:xlink="http://www.w3.org/1999/xlink" x="0px" y="0px"
	 width="587px" height="757.364px" viewBox="0 0 587 757.364" enable-background="new 0 0 587 757.364" xml:space="preserve">
<g>
	<path fill="#C58C24" d="M425,83.997c179,289.815,64.359,486.444,10.682,571.944l-3.503,22.932l24.802,12.583l15.412-8.231
		c55.922-36.289,186.312-378.451-8.33-622.451h-21.069L425,75.359V83.997z"/>
	<path fill="#162B46" d="M457.018,695.669c-0.654,0-1.309-0.151-1.908-0.457l-24.765-12.583c-1.626-0.825-2.536-2.604-2.256-4.405
		l3.577-22.933c0.088-0.565,0.29-1.106,0.596-1.591c21.996-35.04,67.77-107.95,81.255-207.679
		c15.518-114.767-15.411-235.826-91.85-359.813c-0.409-0.666-0.667-1.431-0.667-2.212v-8.638c0-1.272,0.615-2.476,1.604-3.276
		l17.719-14.349c0.75-0.607,1.706-0.961,2.671-0.961h21.07c1.28,0,2.492,0.605,3.292,1.605
		c48.027,60.099,79.869,130.516,94.641,209.272c12.24,65.262,12.629,134.301,1.155,205.188
		c-10.398,64.236-27.723,112.365-40.426,141.428c-16.077,36.779-33.579,63.251-48.021,72.622c-0.106,0.069-0.218,0.135-0.331,0.194
		l-15.394,8.104C458.366,695.507,457.692,695.669,457.018,695.669 M436.888,676.5l20.097,10.211l13.288-6.995
		c23.917-15.746,66.502-96.657,84.559-208.22c11.318-69.923,10.942-137.717-1.119-202.018
		c-14.385-76.696-45.226-145.706-91.682-203.706h-17.545L429,77.369v5.435c77,125.338,108.357,247.912,92.613,364.348
		c-13.635,100.842-59.396,174.477-81.881,210.295L436.888,676.5z"/>
	<path fill="#FDB130" d="M476.249,663.223c97.817-129.388,116.867-400.3,7.76-558.58c-6.777-10.849-17.893-2.597-12.885,4.897
		c108.835,158.61,89.96,418.848-7.536,547.981L476.249,663.223z"/>
	<path fill="#162B46" d="M428,84.773h9.515c178.669,290,63.58,486.056,9.903,571.556l-4.104,22.844l-9.06-0.229l3.892-22.967
		c53.678-85.5,168.855-281.864-9.813-571.679"/>
	<path fill="#0C4A8D" d="M585,407.773c0,11.046-8.954,20-20,20h-18c-11.046,0-20-8.954-20-20v-55c0-11.046,8.954-20,20-20h18
		c11.046,0,20,8.954,20,20V407.773z"/>
	<path fill="#162B46" d="M587,409.704c0,11.636-9.433,21.069-21.069,21.069h-22.861c-11.637,0-21.069-9.434-21.069-21.069v-59.861
		c0-11.637,9.433-21.07,21.069-21.07h22.861c11.637,0,21.069,9.433,21.069,21.07V409.704z M580,350.415
		c0-6.982-5.66-12.642-12.642-12.642h-23.717c-6.981,0-12.642,5.66-12.642,12.642v60.717c0,6.981,5.66,12.642,12.642,12.642h23.717
		c6.981,0,12.642-5.66,12.642-12.642V350.415z"/>
	<path fill="#137AE9" d="M576,406.358c0,1.886-1.529,3.415-3.415,3.415h-0.17c-1.886,0-3.415-1.529-3.415-3.415v-52.169
		c0-1.887,1.529-3.416,3.415-3.416h0.17c1.886,0,3.415,1.529,3.415,3.416V406.358z"/>
	<path fill="#137AE9" d="M470.771,90.609l-18.282,11.481c-9.315,5.85-21.723,3.015-27.573-6.3l-30.318-48.276
		c-5.85-9.316-3.015-21.724,6.301-27.574L419.18,8.459c9.315-5.85,21.725-3.015,27.574,6.3l30.317,48.276
		C482.922,72.351,480.086,84.759,470.771,90.609"/>
	<path fill="#162B46" d="M440.935,110.549c-1.582,0-3.177-0.179-4.761-0.541c-5.499-1.256-10.171-4.564-13.154-9.314l-33.663-53.602
		c-6.178-9.839-3.201-22.87,6.639-29.048l23.606-14.826c4.75-2.983,10.395-3.935,15.896-2.677
		c5.499,1.256,10.171,4.564,13.152,9.314l33.663,53.602c6.178,9.839,3.201,22.87-6.638,29.048l-23.607,14.826
		C448.685,109.455,444.85,110.549,440.935,110.549 M430.752,8.431c-2.348,0-4.645,0.654-6.667,1.924l-23.608,14.826
		c-5.903,3.707-7.689,11.526-3.982,17.429l33.662,53.601c1.786,2.844,4.59,4.826,7.895,5.581c3.305,0.756,6.691,0.187,9.534-1.598
		l23.607-14.826l2.241,3.569l-2.241-3.569c5.903-3.707,7.69-11.526,3.983-17.429l-33.663-53.602
		c-1.786-2.843-4.589-4.825-7.894-5.58C432.666,8.538,431.704,8.431,430.752,8.431"/>
	<path fill="#162B46" d="M390.302,36.25l36.132,57.534c5.746,9.15,17.936,11.935,27.085,6.189l8.093-5.082
		c5.929-3.723,0.273-13.657-8.518-7.659c-9.258,5.613-15.157,8.563-21.584-1.353l-33.305-53.031
		C393.986,26.473,387.518,31.819,390.302,36.25"/>
	<path fill="#84D2FF" d="M469.844,76.428L469.844,76.428c-2.192,1.415-5.144,0.779-6.559-1.413l-34.826-53.952
		c-1.415-2.192-0.778-5.143,1.413-6.557c2.192-1.415,5.143-0.779,6.558,1.412l34.826,53.953
		C472.671,72.062,472.035,75.013,469.844,76.428"/>
	<path fill="#0C4A8D" d="M303.609,704.808c99.779,108.778,172.001-2.888,183.841-32.131c5.535-12.326-40.245-33.495-49.079-27.12
		c-2.123,1.532-28.519,47.736-42.293,50.648c-2.233,0.472-12.07,2.03-26.407-12.361
		C349.711,711.123,333.271,709.595,303.609,704.808"/>
	<path fill="#162B46" d="M388.502,757.364c-29.675,0-59.624-16.281-89.239-48.568c-1.699-1.851-2.038-4.573-0.846-6.784
		c1.19-2.214,3.649-3.429,6.133-3.026c28.983,4.675,42.546,5.72,60.36-18.624c1.019-1.393,2.596-2.269,4.314-2.398
		c1.721-0.133,3.41,0.498,4.626,1.719c11.601,11.645,19.015,11.172,21.009,10.753c0.789-0.167,5.266-1.688,15.834-15.259
		c6.738-8.653,13.321-18.774,17.679-25.472c4.421-6.797,5.192-7.953,6.547-8.93c4.642-3.351,12.808-3.006,24.276,1.016
		c9.392,3.294,18.813,8.371,25.201,13.579c10.371,8.453,10.363,15.312,8.486,19.611c-7.426,18.256-39.703,72.015-89.821,81.07
		C398.219,756.927,393.363,757.364,388.502,757.364 M319.993,712.998c27.463,25.628,54.643,36.199,80.971,31.443
		c41.629-7.523,72.56-53.089,81.018-73.978c0.007-0.016,0.013-0.03,0.02-0.047c-0.174-0.885-2.166-4.47-10.103-9.496
		c-12.267-7.77-25.984-11.321-29.804-10.587c-0.836,1.195-2.354,3.53-3.833,5.805c-17.311,26.612-30.202,43.564-40.963,45.84
		c-4.896,1.033-14.467,0.942-26.896-9.453C354.56,711.711,339.841,714.84,319.993,712.998"/>
	<path fill="#162B46" d="M367.676,725.971c44.748,10.102,63.938-19.615,77.39-37.183c5.473-7.35,21.049-0.031,16.452,7.723
		c-16.376,24.853-56.99,57.059-102.162,38.706C351.62,732.445,356.426,722.05,367.676,725.971"/>
	<path fill="#137AE9" d="M281.145,677.466c-6.495-14.79-27.098-6.51-20.32,8.924c15.25,34.724,55.071,50.373,89.342,35.321
		c34.271-15.051,49.691-54.961,34.441-89.685c-6.776-15.432-26.814-5.865-20.319,8.924c10.167,23.15-0.225,49.804-23.272,59.926
		C317.968,711,291.312,700.615,281.145,677.466"/>
	<path fill="#162B46" d="M323.065,731.664c-8.872,0-17.749-1.673-26.25-5.028c-17.877-7.055-32.028-20.745-39.849-38.551
		c-4.381-9.975,0.298-18.255,7.183-21.277c3.7-1.626,7.794-1.743,11.529-0.331c2.867,1.084,6.812,3.575,9.324,9.296
		c4.463,10.161,12.553,17.957,22.78,21.952c10.218,3.99,21.418,3.738,31.539-0.705c10.121-4.444,17.884-12.522,21.858-22.746
		c3.979-10.233,3.712-21.466-0.75-31.627c-2.564-5.84-2.092-11.837,1.299-16.454c3.224-4.389,8.541-6.746,13.863-6.161
		c5.576,0.615,10.27,4.37,12.875,10.302c7.82,17.806,8.325,37.49,1.423,55.428c-6.898,17.932-20.404,32.069-38.029,39.811
		C342.62,729.628,332.846,731.664,323.065,731.664 M270.365,673.919c-0.979,0-1.941,0.215-2.826,0.604
		c-2.832,1.244-5.28,4.653-2.856,10.173c6.92,15.757,19.431,27.868,35.227,34.101c15.765,6.222,33.012,5.888,48.562-0.942
		c15.551-6.83,27.467-19.303,33.554-35.12c6.099-15.85,5.646-33.255-1.274-49.012c-1.401-3.192-3.505-5.03-6.082-5.314
		c-2.315-0.256-4.722,0.834-6.146,2.771c-1.583,2.156-1.716,5.024-0.375,8.077c5.366,12.222,5.683,25.741,0.889,38.07
		c-4.791,12.324-14.142,22.058-26.325,27.409c-12.184,5.35-25.677,5.648-37.994,0.838c-12.322-4.813-22.063-14.193-27.43-26.413
		C275.642,675.415,272.948,673.919,270.365,673.919"/>
	<path fill="#84D2FF" d="M323.258,712.264c-19.255,0-38.329-10.111-47.344-27.066c-0.546-1.028-0.156-2.305,0.871-2.85
		c1.028-0.547,2.303-0.156,2.85,0.871c11.383,21.409,40.256,30.933,63.055,20.789c10.621-4.724,19.723-14.073,24.97-25.647
		c5.36-11.825,5.884-24.543,1.437-34.893c-0.46-1.068,0.034-2.309,1.104-2.768c1.072-0.461,2.308,0.036,2.768,1.104
		c4.915,11.437,4.38,25.395-1.47,38.296c-5.668,12.503-15.543,22.62-27.095,27.759C337.673,710.852,330.452,712.263,323.258,712.264
		"/>
	<path fill="#162B46" d="M342.813,717.937c24.747-8.778,40.219-35.911,38.95-61.055c-0.133-3.853,4.848-4.462,5.24-0.696
		c2.895,29.204-14.318,58.259-42.023,67.629c-27.158,10.855-57.372-2.176-74.003-24.856c-2.147-3.119,2.008-5.972,4.407-2.955
		C290.739,715.954,318.29,727.322,342.813,717.937"/>
	<path fill="#414042" d="M188.463,662.164c-87.216,57.499-167.164-44.607-114.607-142.661l42.139,30.762
		c-27.812,47.195,5.478,99.869,42.982,67.844L188.463,662.164z"/>
	<path fill="#162B46" d="M73.856,519.503l42.139,30.761c-21.879,37.128-5.939,77.651,20.114,77.651
		c7.064,0,14.868-2.977,22.868-9.808l29.486,44.056c-17.508,11.542-34.737,16.656-50.646,16.656
		C74.475,678.82,31.849,597.872,73.856,519.503 M73.856,506.861c-0.937,0-1.879,0.104-2.809,0.316
		c-3.566,0.812-6.605,3.13-8.333,6.353c-12.114,22.602-18.435,47.09-18.282,70.82c0.145,22.263,5.867,43.462,16.549,61.307
		c8.259,13.798,19.397,25.256,32.209,33.138c13.475,8.286,28.906,12.668,44.627,12.668c19.358,0,38.739-6.308,57.604-18.744
		c2.812-1.854,4.768-4.753,5.434-8.055s-0.013-6.732-1.886-9.531l-29.486-44.057c-2.008-2.999-5.202-4.998-8.778-5.49
		c-0.576-0.08-1.154-0.119-1.728-0.119c-2.991,0-5.907,1.062-8.209,3.027c-5.194,4.436-10.263,6.78-14.659,6.78
		c-6.797,0-11.105-5.762-13.067-9.197c-3.303-5.779-4.963-13.4-4.673-21.459c0.338-9.393,3.283-19.053,8.517-27.936
		c3.302-5.603,1.815-12.794-3.437-16.628L81.31,509.292C79.126,507.698,76.512,506.861,73.856,506.861"/>
	<path fill="#6D6E71" d="M87.341,531.66c-37.082,75.07,25.425,135.751,75.991,104.568l8.322,13.816
		c-49.759,33.094-137.127-15.503-87.684-123.168L87.341,531.66z"/>
	<path fill="#162B46" d="M179.928,641.805c-12.496,29.378-43.217,36.428-55.371,36.795c19.178,3.328,39.2-0.13,61.377-14.751
		L179.928,641.805z"/>
	<path fill="#162B46" d="M122.388,548.239c-19.69,24.561-14.147,55.269-8.565,66.07c-12.224-15.146-26.331-41.395-24.322-67.882
		l29.64,1.985L122.388,548.239z"/>
	<path fill="#137AE9" d="M282.11,23.932c11.397,52.324,15.721,83.418,136.384,159.523c62.999,43.57,104.217,116.918,104.217,199.313
		c0,133.346-108.098,242.004-241.443,242.004h1.252c-133.346,0-241.444-108.658-241.444-242.004
		c0-82.395,41.219-155.463,104.217-199.033C265.957,107.631,270.28,76.396,281.677,24.072L282.11,23.932z"/>
	<path fill="#162B46" d="M282.111,23.933c11.396,52.324,15.72,83.418,136.384,159.523
		c62.997,43.569,104.217,116.956,104.217,199.351c0,133.134-107.765,241.698-240.818,242.042
		C148.84,624.504,41.076,515.941,41.076,382.807c0-82.395,41.218-155.482,104.217-199.052
		C265.957,107.65,270.281,76.406,281.677,24.082L282.111,23.933 M281.894,624.849c0.211,0.001,0.414,0.001,0.626,0.001h-1.252
		C281.479,624.85,281.682,624.85,281.894,624.849 M282.11,7.077c-1.854,0-3.714,0.306-5.504,0.924l-0.434,0.15
		c-5.558,1.921-9.713,6.599-10.964,12.344l-0.779,3.587c-5.271,24.322-9.079,41.894-24.627,62.375
		c-17.65,23.25-50.538,49.637-103.501,83.041c-0.201,0.127-0.4,0.259-0.596,0.394c-33.666,23.283-61.679,54.711-81.011,90.885
		c-9.831,18.395-17.411,37.96-22.532,58.152c-5.27,20.78-7.942,42.272-7.942,63.878c0,34.808,6.81,68.615,20.241,100.483
		c12.971,30.778,31.534,58.44,55.176,82.219c23.653,23.791,51.201,42.497,81.876,55.6c31.48,13.444,64.891,19.905,99.324,20.126
		c0.143,0.004,0.287-0.461,0.431-0.461h1.252c0.144,0,0.288,0.465,0.431,0.461c34.433-0.221,67.843-6.914,99.324-20.359
		c30.675-13.102,58.223-31.691,81.876-55.482c23.642-23.778,42.205-51.383,55.176-82.161
		c13.432-31.867,20.241-65.646,20.241-100.453c0-85.229-41.677-164.921-111.484-213.2c-0.196-0.136-0.396-0.259-0.597-0.386
		c-52.994-33.425-85.89-59.795-103.522-82.994c-15.541-20.447-19.347-38.007-24.615-62.312l-0.769-3.541
		c-1.025-4.707-4.016-8.749-8.215-11.109C287.817,7.805,284.971,7.077,282.11,7.077"/>
	<path fill="#162B46" d="M63.101,280.779c13.437-23.9,13.749-57.876,68.064-90.803c116.72-77.448,114.408-81.749,139.208-124.444
		C246.837,181.127,138.75,205.146,167.989,269.397C128.14,271.936,99.454,275.865,63.101,280.779"/>
	<path fill="#0C4A8D" d="M270.373,65.531c-23.536,115.596-131.624,139.615-102.384,203.865c-39.849,2.539-32.918-0.478-69.271,4.436
		c0,0,12.709-47.624,68.019-89.756C255.616,116.374,270.373,65.531,270.373,65.531"/>
	<path fill="#162B46" d="M522.021,379.302c0,132.316-108.734,239.471-240.747,239.471h1.24
		c-132.013,0-240.749-107.155-240.749-239.471c-0.434,5.899-0.689,12.456-0.689,18.492c0,133.346,108.098,241.979,241.444,241.979
		h-1.252c133.346,0,241.444-108.598,241.444-241.943C522.712,391.777,522.457,385.201,522.021,379.302"/>
	<path fill="#84D2FF" d="M281.983,590.015c-42.555,0-86.345-15.128-131.098-45.392c-3.856-2.606-4.868-7.846-2.26-11.702
		c2.607-3.855,7.846-4.869,11.702-2.261c41.187,27.853,82.361,42.178,120.775,42.573c0.54,0.004-0.54,0,0,0
		c38.783,0,77.879-14.219,114.638-42.289c3.7-2.826,8.989-2.116,11.813,1.582c2.825,3.7,2.116,8.989-1.583,11.812
		C366.099,574.787,324.663,590.015,281.983,590.015"/>
	<path fill="#FFFFFF" stroke="#FFFFFF" stroke-miterlimit="10" d="M281.13,395.94c-18.277-0.182-36.129,7.841-47.933,21.796
		c-16.842,19.909-41.608,31.662-67.681,32.119c-33.051,0.58-63.193-19.477-75.424-50.187c-10.846-27.233-2.331-58.514,20.822-76.492
		c23.152-17.978,55.567-18.193,79.265-0.939c33.874,27.544,62.337,51.908,91.588,51.908c29.252,0,57.715-24.364,91.589-51.908
		c23.697-17.254,56.112-16.896,79.266,1.083c23.152,17.978,31.668,49.187,20.821,76.42c-12.23,30.71-42.373,50.731-75.424,50.151
		c-26.073-0.457-50.839-12.229-67.681-32.139c-11.804-13.954-29.676-21.985-47.953-21.804L281.13,395.94z"/>
	<path fill="#162B46" d="M194.173,300.205c32.132,26.181,59.499,51.184,87.594,51.184c27.842,0,54.97-24.601,86.729-50.479
		L194.173,300.205z"/>
	<path fill="#C9BB00" d="M490.61,285.842c-68.752-9.016-138.575-14.538-208.546-16.223c-69.97,1.685-139.793,7.207-208.545,16.223
		c-47.258,4.826-60.47,162.323,0.073,183.603c136.235,46.065,206.514,48.88,208.472,45.444c1.958,3.436,72.238,0.533,208.473-45.532
		C551.079,448.077,537.868,290.668,490.61,285.842 M477.804,451.39c-27.815,15.599-54.589,20.401-80.09,20.401
		c-36.584,0-48.437-7.721-66.839-26.196c-13.43-13.483-30.562-22.59-48.839-22.59c-18.277,0-35.41,9.106-48.839,22.59
		c-18.402,18.476-30.255,26.173-66.838,26.173c-25.501,0-52.275-4.79-80.09-20.389c-22.19-12.354-28.692-139.62,13.715-143.834
		c64.975-3.915,116.305-5.898,182.052-5.055c65.747-0.843,117.077,1.145,182.053,5.06
		C506.494,311.764,499.993,439.037,477.804,451.39"/>
	<path fill="#162B46" d="M282.065,269.619c69.971,1.685,139.793,7.207,208.546,16.223c47.257,4.827,60.469,162.235-0.074,183.515
		c-111.921,37.844-179.328,46.557-200.908,46.557c-4.688,0-7.215-0.412-7.564-1.024c-0.352,0.617-2.902,1.032-7.643,1.032
		c-21.669,0-89.049-8.681-200.83-46.477c-60.542-21.28-47.33-178.776-0.073-183.603
		C142.272,276.826,212.094,271.304,282.065,269.619 M166.359,471.768c36.583,0,48.435-7.697,66.838-26.173
		c13.429-13.483,30.562-22.59,48.839-22.59c18.276,0,35.41,9.106,48.839,22.59c18.403,18.476,30.255,26.195,66.838,26.195
		c25.501,0,52.275-4.802,80.09-20.4c22.19-12.354,28.692-139.626-13.715-143.84c-55.061-3.318-100.32-5.251-152.86-5.251
		c-9.46,0-19.159,0.063-29.191,0.191c-10.048-0.129-19.758-0.191-29.233-0.191c-52.521,0-97.775,1.93-152.82,5.246
		c-42.406,4.214-35.904,131.481-13.715,143.834C114.083,466.978,140.857,471.768,166.359,471.768 M282.065,252.758l-0.406,0.01
		c-69.487,1.674-140.183,7.17-210.127,16.335c-10.877,1.189-26.31,7.557-38.636,30.943c-7.517,14.264-12.796,32.808-15.267,53.628
		c-3.203,26.997-1.308,54.237,5.337,76.703c8.453,28.577,24.026,47.586,45.037,54.971l0.095,0.033l0.095,0.032
		c49.801,16.839,95.629,29.608,136.211,37.954c41.3,8.493,62.724,9.41,70.018,9.41c2.074,0,4.776,0,7.644-0.417
		c2.839,0.409,5.51,0.409,7.563,0.409c7.271,0,28.643-0.919,69.977-9.434c40.604-8.363,86.473-21.152,136.33-38.011l0.097-0.032
		l0.095-0.033c21.008-7.385,36.581-26.385,45.034-54.945c6.646-22.454,8.543-49.681,5.341-76.664
		c-2.47-20.814-7.75-39.352-15.268-53.613c-12.326-23.379-27.761-29.745-38.637-30.934c-69.943-9.165-140.64-14.661-210.126-16.335
		L282.065,252.758z M101.468,324.342c51.771-3.115,97.356-5.188,151.335-5.188c9.406,0,19.169,0.064,29.017,0.19l0.216,0.003
		l0.216-0.003c9.829-0.126,19.578-0.189,28.977-0.19c53.954,0,99.562,2.075,151.375,5.192c2.911,0.467,6.41,5.212,9.182,12.479
		c5.425,14.23,7.712,36.473,6.117,59.501c-1.656,23.916-6.809,37.582-9.229,40.855c-21.921,12.109-44.499,17.755-70.961,17.755
		c-32.45,0-39.85-6.13-54.896-21.236c-17.696-17.767-39.282-27.551-60.781-27.551c-21.5,0-43.086,9.785-60.782,27.551
		c-15.029,15.089-22.422,21.212-54.895,21.212c-26.476,0-49.056-5.642-70.962-17.742c-2.419-3.272-7.571-16.938-9.227-40.852
		c-1.595-23.026,0.692-45.268,6.116-59.497C95.057,329.554,98.556,324.809,101.468,324.342"/>
	<path fill="#E6D600" d="M50.455,346.167c5.364-29.079,15.211-52.459,32.409-54.215c26.511-3.482,43.4-4.725,72.376-7.273
		c10.76-0.873,9.636,10.646-0.898,10.956c-23.707,2.041-47.315,2.924-70.767,6c-14.862,1.518-22.997,21.859-27.544,47.059
		C54.894,353.595,49.135,352.493,50.455,346.167"/>
	<path fill="#E6D600" d="M513.195,346.167c-5.364-29.079-15.212-52.459-32.409-54.215c-26.512-3.482-43.4-4.725-72.376-7.273
		c-10.761-0.873-9.638,10.646,0.897,10.956c23.707,2.041,47.315,2.924,70.768,6c14.861,1.518,22.997,21.859,27.544,47.059
		C508.756,353.595,514.515,352.493,513.195,346.167"/>
	<path fill="#E6D600" d="M323.215,462.945c-1.309,0-2.62-0.467-3.668-1.411c-11.392-10.28-23.51-15.068-38.137-15.068
		c-14.634,0-26.752,4.785-38.138,15.058c-2.246,2.026-5.71,1.85-7.736-0.396c-2.028-2.246-1.849-5.71,0.397-7.737
		c13.519-12.198,27.969-17.88,45.477-17.88c17.501,0,31.952,5.686,45.477,17.89c2.246,2.027,2.424,5.491,0.396,7.737
		C326.202,462.334,324.711,462.945,323.215,462.945"/>
	<path fill="#162B46" d="M462.562,467.253c33.131-12.772,30.277-7.863,37.521-32.914c0.682-5.234,11.019-3.456,8.415,3.071
		c-7.243,25.052-11.224,21.729-45.464,33.311C458.459,472.031,458.456,467.648,462.562,467.253"/>
	<path fill="#162B46" d="M101.363,467.253c-33.131-12.772-30.277-7.863-37.521-32.914c-0.682-5.234-11.019-3.456-8.416,3.071
		c7.244,25.052,11.224,21.729,45.464,33.311C105.467,472.031,105.469,467.648,101.363,467.253"/>
	<path fill="#0C4A8D" d="M22,365.773c0,1.657-1.343,3-3,3h-8c-1.657,0-3-1.343-3-3v-13c0-1.657,1.343-3,3-3h8c1.657,0,3,1.343,3,3
		V365.773z"/>
	<path fill="#162B46" d="M18.728,349.635c1.39,0,2.272,1.041,2.272,2.431v13.766c0,1.39-0.533,2.941-1.924,2.941h-8.428
		c-1.39,0-2.648-1.551-2.648-2.941v-13.766c0-1.39,1.258-2.293,2.648-2.293H19 M19.076,344.773h-8.428
		c-3.717,0-6.648,3.575-6.648,7.293v13.766c0,3.717,2.931,6.941,6.648,6.941h8.428c3.718,0,6.924-3.224,6.924-6.941v-13.766
		C26,348.348,22.793,344.773,19.076,344.773"/>
	<path fill="#162B46" d="M28,408.773c0,2.761-2.239,5-5,5H7c-2.761,0-5-2.239-5-5v-42c0-2.761,2.239-5,5-5h16c2.761,0,5,2.239,5,5
		V408.773z"/>
	<path fill="#162B46" d="M30,408.452c0,3.491-2.83,6.321-6.321,6.321H6.321c-3.491,0-6.321-2.83-6.321-6.321v-43.358
		c0-3.491,2.83-6.321,6.321-6.321h17.358c3.491,0,6.321,2.83,6.321,6.321V408.452z M25,364.88c0-1.164-0.943-2.107-2.107-2.107
		H6.107c-1.164,0-2.107,0.943-2.107,2.107v42.786c0,1.164,0.943,2.107,2.107,2.107h16.786c1.164,0,2.107-0.943,2.107-2.107V364.88z"
		/>
	<path fill="#137AE9" d="M15,355.821c0,1.078-0.874,1.952-1.952,1.952h-0.096c-1.078,0-1.952-0.874-1.952-1.952v-2.097
		c0-1.078,0.874-1.951,1.952-1.951h0.096c1.078,0,1.952,0.873,1.952,1.951V355.821z"/>
	<path fill="#0C4A8D" d="M13,389.846c0,1.617-1.311,2.927-2.927,2.927H9.927c-1.616,0-2.927-1.31-2.927-2.927v-22.145
		c0-1.617,1.311-2.928,2.927-2.928h0.146c1.616,0,2.927,1.311,2.927,2.928V389.846z"/>
	<path fill="#0C4A8D" d="M556,352.773c0-1.657-1.343-3-3-3h-8c-1.657,0-3,1.343-3,3v13c0,1.657,1.343,3,3,3h8c1.657,0,3-1.343,3-3
		V352.773z"/>
	<path fill="#162B46" d="M553.289,349.635c1.392,0,2.711,1.041,2.711,2.431v13.766c0,1.39-1.212,2.941-2.603,2.941h-8.428
		c-1.391,0-2.97-1.551-2.97-2.941v-13.766c0-1.39,1.579-2.293,2.97-2.293H553 M553.397,344.773h-8.428
		c-3.718,0-5.97,3.575-5.97,7.293v13.766c0,3.717,2.252,6.941,5.97,6.941h8.428c3.718,0,6.603-3.224,6.603-6.941v-13.766
		C560,348.348,557.115,344.773,553.397,344.773"/>
	<path fill="#162B46" d="M562,366.773c0-2.761-2.239-5-5-5h-16c-2.761,0-5,2.239-5,5v42c0,2.761,2.239,5,5,5h16c2.761,0,5-2.239,5-5
		V366.773z"/>
	<path fill="#162B46" d="M564,408.452c0,3.491-2.83,6.321-6.321,6.321h-17.357c-3.491,0-6.321-2.83-6.321-6.321v-43.358
		c0-3.491,2.83-6.321,6.321-6.321h17.357c3.491,0,6.321,2.83,6.321,6.321V408.452z M560,364.88c0-1.164-0.943-2.107-2.107-2.107
		h-16.785c-1.164,0-2.107,0.943-2.107,2.107v42.786c0,1.164,0.943,2.107,2.107,2.107h16.785c1.164,0,2.107-0.943,2.107-2.107V364.88
		z"/>
	<path fill="#137AE9" d="M553,353.725c0-1.078-0.874-1.952-1.952-1.952h-0.096c-1.078,0-1.952,0.874-1.952,1.952v2.097
		c0,1.078,0.874,1.951,1.952,1.951h0.096c1.078,0,1.952-0.873,1.952-1.951V353.725z"/>
	<path fill="#0C4A8D" d="M558,367.7c0-1.617-1.311-2.927-2.927-2.927h-0.146c-1.616,0-2.927,1.31-2.927,2.927v22.145
		c0,1.617,1.311,2.928,2.927,2.928h0.146c1.616,0,2.927-1.311,2.927-2.928V367.7z"/>
	<path fill="#414042" d="M376.949,569.437c0,52.776-42.783,95.56-95.559,95.56c-52.775,0-95.558-42.783-95.558-95.56
		c0-52.775,42.783-95.559,95.558-95.559C334.166,473.878,376.949,516.662,376.949,569.437"/>
	<path fill="#162B46" d="M281.391,476.943c51.084,0,92.495,41.411,92.495,92.495c0,51.083-41.411,92.495-92.495,92.495
		s-92.495-41.412-92.495-92.495C188.896,518.354,230.307,476.943,281.391,476.943 M281.391,460.086
		c-29.209,0-56.669,11.374-77.322,32.028c-20.654,20.654-32.029,48.114-32.029,77.323c0,29.208,11.375,56.669,32.029,77.321
		c20.653,20.654,48.113,32.028,77.322,32.028s56.669-11.374,77.322-32.028c20.653-20.652,32.028-48.113,32.028-77.321
		c0-29.209-11.375-56.669-32.028-77.323S310.6,460.086,281.391,460.086"/>
	<path fill="#6D6E71" d="M281.228,498.739c2.522,11.58,3.479,18.461,30.183,35.304c13.941,9.643,23.063,26.406,23.063,44.642
		c0,29.51-23.923,54.089-53.434,54.089h0.278c-29.511,0-53.434-24.579-53.434-54.089c0-18.235,9.122-34.671,23.064-44.313
		c26.704-16.843,27.661-23.888,30.183-35.468L281.228,498.739z"/>
	<path fill="#162B46" d="M281.263,520.037c4.68,5.914,12.344,12.321,25.749,20.789c12.022,8.387,19.484,22.86,19.484,37.818
		c0,25.263-20.327,45.869-45.316,45.947c-24.989-0.078-45.316-20.685-45.316-45.947c0-15.031,7.281-29.063,19.484-37.572
		C268.918,532.5,276.601,526.031,281.263,520.037 M281.228,498.071l-0.096,0.122c-2.548,11.695-3.514,18.77-30.485,35.78
		c-14.082,9.738-23.295,26.254-23.295,44.671c0,29.759,24.088,54.381,53.828,54.459c29.74-0.078,53.828-24.7,53.828-54.459
		c0-18.417-9.213-35.179-23.295-44.917C284.742,516.716,283.775,509.765,281.228,498.071 M281.18,633.103c-0.047,0-0.093,0-0.14,0
		h0.28C281.273,633.103,281.227,633.103,281.18,633.103"/>
	<path fill="#162B46" d="M281.207,535.039c1.428,6.556,1.969,10.45,17.085,19.983c7.892,5.458,13.055,14.38,13.055,24.702
		c0,16.704-13.541,30.049-30.246,30.049h0.157c-16.704,0-30.245-13.345-30.245-30.049c0-10.322,5.163-19.342,13.055-24.8
		c15.115-9.533,15.657-13.379,17.085-19.935L281.207,535.039z"/>
	<path fill="#A7A9AC" d="M281.19,562.426c0.551,2.53,0.76,4.033,6.593,7.712c3.046,2.106,5.039,5.802,5.039,9.785
		c0,6.447-5.226,11.85-11.673,11.85h0.061c-6.447,0-11.673-5.402-11.673-11.85c0-3.983,1.993-7.59,5.039-9.697
		c5.833-3.679,6.042-5.226,6.593-7.756L281.19,562.426z"/>
	<path fill="#6D6E71" d="M281.472,491.122c35.107,0,64.9,22.903,74.842,54.929c3.301,12.746,17.207,9.063,14.756,0.004
		c-10.354-39.611-46.589-69.112-89.598-69.112c-43.009,0-79.243,29.501-89.598,69.112c-2.451,9.06,11.455,12.744,14.756-0.002
		C216.57,514.027,246.363,491.122,281.472,491.122"/>
	<path fill="#162B46" d="M281.472,648.827c-35.108,0-64.901-22.902-74.842-54.928c-3.301-12.747-17.207-9.063-14.756-0.004
		c10.355,39.611,46.589,69.112,89.598,69.112c43.009,0,79.243-29.501,89.598-69.112c2.451-9.06-11.455-12.745-14.756,0.002
		C346.372,625.922,316.579,648.827,281.472,648.827"/>
	<path fill="#414042" d="M216.488,668.152l-3.67,2.536c-9.049,6.253-21.57,3.965-27.823-5.085l-29.642-42.897
		c-6.253-9.049-3.965-21.57,5.084-27.823l3.67-2.536c9.05-6.253,21.57-3.965,27.824,5.085l29.641,42.897
		C227.826,649.378,225.538,661.899,216.488,668.152"/>
	<path fill="#162B46" d="M176.613,589.994c5.362-0.001,10.645,2.537,13.906,7.258l30.723,44.462
		c5.27,7.626,3.342,18.179-4.285,23.448l-7.102,4.907c-2.907,2.009-6.24,2.972-9.542,2.972c-5.362,0-10.645-2.536-13.907-7.257
		l-30.722-44.462c-5.27-7.627-3.342-18.179,4.285-23.449l7.101-4.906C169.977,590.957,173.311,589.994,176.613,589.994
		 M176.614,577.773h-0.002c-6.008,0-11.793,1.593-16.728,5.003l-7.102,4.802c-13.381,9.246-16.745,27.603-7.499,40.983
		l30.723,44.436c5.5,7.959,14.587,12.699,24.307,12.699c6.008,0,11.793-1.81,16.729-5.22l7.102-4.911
		c13.381-9.246,16.745-27.656,7.498-41.037l-30.722-44.253C195.42,582.316,186.333,577.773,176.614,577.773"/>
	<path fill="#6D6E71" d="M208.285,652.608c8.244-5.487,4.798-8.002,0.945-13.79l-21.947-32.975
		c-3.853-5.788-11.741-7.371-17.529-3.52l-1.403,0.935c-5.788,3.853-7.371,11.739-3.519,17.527l10.974,16.488
		c3.911,5.875,10.324,2.183,13.959-0.237C196.645,632.458,201.882,656.869,208.285,652.608"/>
	<path fill="#A7A9AC" d="M190.048,628.243L190.048,628.243c-2.221,1.474-5.244,0.862-6.717-1.358l-8.961-13.51
		c-1.474-2.222-0.862-5.244,1.359-6.718c2.221-1.473,5.244-0.86,6.717,1.36l8.961,13.509
		C192.881,623.748,192.269,626.77,190.048,628.243"/>
</g>
</svg>
